<svg width="26" height="26" viewBox="0 0 26 26" fill="none" xmlns="http://www.w3.org/2000/svg">
<g clip-path="url(#clip0_209_261)">
<path d="M13 26.0001C20.1797 26.0001 26 20.1797 26 13C26 5.82031 20.1797 0 13 0C5.8203 0 0 5.82031 0 13C0 20.1797 5.8203 26.0001 13 26.0001Z" fill="#3C5A9A"/>
<path d="M17.227 3.99036H14.3472C12.6382 3.99036 10.7374 4.70913 10.7374 7.18636C10.7457 8.04953 10.7374 8.87619 10.7374 9.80653H8.76038V12.9526H10.7986V22.0097H14.5439V12.8928H17.0159L17.2396 9.7977H14.4794C14.4794 9.7977 14.4855 8.42086 14.4794 8.02101C14.4794 7.04206 15.498 7.09812 15.5593 7.09812C16.044 7.09812 16.9865 7.09954 17.2284 7.09812V3.99036H17.227Z" fill="white"/>
</g>
<defs>
<clipPath id="clip0_209_261">
<rect width="26" height="26" fill="white"/>
</clipPath>
</defs>
</svg>
