<svg width="26" height="26" viewBox="0 0 26 26" fill="none" xmlns="http://www.w3.org/2000/svg">
<g clip-path="url(#clip0_209_244)">
<path d="M25.3938 13.2432C25.3938 12.178 25.3074 11.4007 25.1203 10.5946H12.9567V15.4024H20.0964C19.9525 16.5972 19.1752 18.3966 17.4478 19.6057L17.4236 19.7666L21.2695 22.746L21.536 22.7726C23.983 20.5126 25.3938 17.1874 25.3938 13.2432Z" fill="#4285F4"/>
<path d="M12.9567 25.9107C16.4546 25.9107 19.3911 24.7591 21.536 22.7726L17.4479 19.6057C16.3539 20.3686 14.8856 20.9012 12.9567 20.9012C9.53074 20.9012 6.623 18.6413 5.58646 15.5176L5.43453 15.5305L1.43548 18.6254L1.38318 18.7708C3.5136 23.0029 7.88966 25.9107 12.9567 25.9107Z" fill="#34A853"/>
<path d="M5.58648 15.5177C5.31298 14.7116 5.1547 13.8478 5.1547 12.9554C5.1547 12.0628 5.31298 11.1992 5.57209 10.3931L5.56485 10.2214L1.51569 7.07678L1.38321 7.1398C0.505167 8.89599 0.00134277 10.8681 0.00134277 12.9554C0.00134277 15.0426 0.505167 17.0146 1.38321 18.7708L5.58648 15.5177Z" fill="#FBBC05"/>
<path d="M12.9567 5.00937C15.3893 5.00937 17.0303 6.06018 17.966 6.93833L21.6223 3.36839C19.3768 1.28115 16.4545 0 12.9567 0C7.88963 0 3.51359 2.90773 1.38318 7.13978L5.57206 10.3931C6.62297 7.26938 9.53071 5.00937 12.9567 5.00937Z" fill="#EB4335"/>
</g>
<defs>
<clipPath id="clip0_209_244">
<rect width="25.4072" height="26" fill="white"/>
</clipPath>
</defs>
</svg>
